<?xml version="1.0" encoding="UTF-8"?>
<svg version="1.1" xmlns="http://www.w3.org/2000/svg" width="771" height="384">
<path d="M0 0 C2.17946637 -0.00407147 4.35893067 -0.00941657 6.53839111 -0.01593018 C12.42465497 -0.02954021 18.31076007 -0.02433148 24.19702649 -0.01479292 C30.37467688 -0.00716448 36.55231425 -0.01425066 42.72996521 -0.01895142 C53.10043767 -0.0243993 63.4708459 -0.01724231 73.84130859 -0.00292969 C85.81050593 0.01339921 97.77954996 0.00810259 109.74874359 -0.0084089 C120.04890899 -0.02204618 130.34902839 -0.02393259 140.6491999 -0.0160929 C146.79075662 -0.01142927 152.93224139 -0.01075549 159.07379341 -0.02070236 C164.84823367 -0.02940254 170.62247723 -0.02329442 176.39689636 -0.00601959 C178.50915132 -0.00207122 180.621423 -0.00316033 182.73367119 -0.00980759 C202.13707501 -0.06521563 218.46651711 2.11908528 233.06811523 16.18505859 C234.14512695 17.27560547 234.14512695 17.27560547 235.24389648 18.38818359 C235.8072168 18.92958984 236.37053711 19.47099609 236.95092773 20.02880859 C246.74766824 30.26498073 250.56225647 44.11353756 250.51132202 57.91140747 C250.51585313 58.82731309 250.52038425 59.74321871 250.52505267 60.68687904 C250.53763818 63.73336236 250.53608008 66.77966556 250.53442383 69.82617188 C250.54041281 72.01988452 250.54721921 74.21359506 250.55477905 76.40730286 C250.57241063 82.35181368 250.5771333 88.29626689 250.57841063 94.24080133 C250.57983463 97.9601911 250.58410902 101.67956633 250.58940506 105.39895248 C250.60694412 117.72074557 250.61624647 130.04250361 250.61474411 142.36430933 C250.6146642 143.02735385 250.61458429 143.69039837 250.61450195 144.37353516 C250.61442019 145.03739931 250.61433843 145.70126346 250.61425419 146.38524471 C250.61344218 157.13166617 250.63256227 167.87794717 250.66077869 178.62432803 C250.68959225 189.68638803 250.70294906 200.74837636 250.70159113 211.81047428 C250.70108282 218.00979269 250.70669349 224.20895214 250.72794724 230.40823746 C250.74740975 236.24421896 250.74739935 242.07989117 250.73291397 247.91588402 C250.73083456 250.04784666 250.7354745 252.17982907 250.74763489 254.31175804 C250.85012121 273.53734265 248.16127362 287.39429119 237.05639648 303.57568359 C221.6047465 319.02733358 204.18920182 323.61508338 182.96264648 323.68115234 C178.55594828 323.67230704 174.15027838 323.62662257 169.74389648 323.57568359 C167.45614494 323.56060059 165.1683837 323.54691862 162.88061523 323.53466797 C157.3348272 323.50196996 151.78940856 323.45206108 146.24389648 323.38818359 C146.14467024 318.37115181 146.07226062 313.35469707 146.02416992 308.33691406 C146.00411279 306.63173466 145.97685991 304.92662354 145.94213867 303.22167969 C145.89335787 300.76398835 145.8708693 298.30720993 145.85327148 295.84912109 C145.83262634 295.09263275 145.8119812 294.33614441 145.79071045 293.55673218 C145.78853694 288.37485724 146.87299509 285.52790078 150.24389648 281.38818359 C154.88087959 277.31325905 159.19105259 277.24551893 165.13061523 277.21240234 C166.72502929 277.18919141 168.31943036 277.16507357 169.91381836 277.14013672 C172.4174046 277.10514377 174.92051627 277.0757422 177.42431641 277.06225586 C179.8478309 277.04666053 182.26997003 277.00637086 184.69311523 276.96240234 C185.42986984 276.96431076 186.16662445 276.96621918 186.92570496 276.96818542 C192.19922675 276.84577833 197.09187791 275.82147938 201.24389648 272.38818359 C204.35666387 267.37995667 204.67471068 263.44597371 204.63157654 257.74134827 C204.63696208 256.88361468 204.64234761 256.0258811 204.64789635 255.14215559 C204.66217661 252.2748806 204.65507203 249.40806723 204.64794922 246.54077148 C204.65365274 244.48230112 204.66061693 242.42383392 204.66874695 240.3653717 C204.68669522 234.77861273 204.68550682 229.19201068 204.67980456 223.60523152 C204.6767152 218.94061763 204.68280235 214.27603398 204.68884331 209.61142439 C204.70289236 198.60705358 204.701324 187.60276039 204.68994141 176.59838867 C204.67845897 165.2466576 204.69253723 153.89516275 204.71933788 142.54346281 C204.74149027 132.79552549 204.74813331 123.04766234 204.74226147 113.29970163 C204.73888971 107.47842562 204.7413217 101.65730106 204.7585125 95.83604622 C204.77397213 90.36206954 204.77003674 84.888443 204.75120735 79.41448021 C204.74751882 77.40655713 204.75063761 75.39860817 204.76109314 73.39070892 C204.77428649 70.64740288 204.76277024 67.90525878 204.74510193 65.16200256 C204.75470694 64.36938603 204.76431194 63.5767695 204.77420801 62.76013428 C204.70070673 57.20501151 203.65748353 53.84160722 200.24389648 49.38818359 C195.06355751 46.30401632 190.51992849 45.95653772 184.6733551 46.00723267 C183.83589042 46.00255269 182.99842574 45.99787272 182.13558334 45.99305093 C179.34282966 45.98113085 176.55056941 45.99054647 173.7578125 46 C171.75007848 45.99593294 169.74234669 45.99059031 167.73461914 45.98406982 C162.29039932 45.97040556 156.84635027 45.9756915 151.4021275 45.98520708 C145.70036695 45.99280928 139.99862088 45.98575641 134.29685974 45.98104858 C124.72115457 45.97559224 115.14551884 45.98277905 105.56982422 45.99707031 C94.50611953 46.01339189 83.44258074 46.00811135 72.37888008 45.9915911 C62.87379493 45.97796727 53.36875967 45.97606111 43.86366791 45.9839071 C38.18939905 45.98857927 32.51520811 45.98922107 26.84094429 45.97929764 C21.50488413 45.97061742 16.16903735 45.97666933 10.83300018 45.99398041 C8.87710105 45.99793979 6.92118389 45.99682062 4.96529198 45.99019241 C2.29042785 45.98196503 -0.38375733 45.99231286 -3.05857849 46.00723267 C-3.82814532 46.0005405 -4.59771215 45.99384834 -5.39059919 45.98695338 C-11.75821676 46.0555973 -17.53419574 47.16627582 -22.19360352 51.82568359 C-25.10752701 56.60451812 -24.90252381 61.24995596 -24.89654541 66.72531128 C-24.89951653 67.57387447 -24.90248765 68.42243767 -24.90554881 69.2967149 C-24.91423178 72.14475999 -24.91574371 74.99276303 -24.91723633 77.84082031 C-24.92186472 79.88091115 -24.92688941 81.92100112 -24.93228149 83.96109009 C-24.94540394 89.50653345 -24.95184995 95.05196471 -24.95629215 100.59742117 C-24.95922264 104.06092206 -24.96332736 107.52441963 -24.96779633 110.98791885 C-24.98146976 121.82147833 -24.99113763 132.65503024 -24.99499822 143.48859775 C-24.99948118 156.00023742 -25.0170408 168.51176796 -25.04599881 181.02337444 C-25.06759997 190.69141168 -25.07770163 200.35941817 -25.07903934 210.02747929 C-25.08008832 215.8034663 -25.08601634 221.57935071 -25.10385895 227.35531235 C-25.12031288 232.78733317 -25.12250812 238.21917395 -25.11371994 243.65121078 C-25.11294818 245.64504477 -25.11731055 247.63888834 -25.12717819 249.63269806 C-25.1398585 252.35437695 -25.13404223 255.07541438 -25.12359619 257.79708862 C-25.1316526 258.58620034 -25.139709 259.37531206 -25.14800954 260.18833625 C-25.10478615 265.0028778 -24.30142143 268.2948821 -21.75610352 272.38818359 C-17.32478012 276.40407042 -13.10254046 276.53431544 -7.36645508 276.5300293 C-6.61648254 276.53350372 -5.86651001 276.53697815 -5.09381104 276.54055786 C-3.46507762 276.54790845 -1.83633424 276.55325755 -0.2075882 276.55684853 C2.37383614 276.56402199 4.95507128 276.57969593 7.53643799 276.59819031 C14.87607196 276.65061265 22.21560283 276.69861422 29.55541992 276.71411133 C34.04595949 276.72421391 38.53602346 276.75359693 43.02637482 276.79543114 C44.73427985 276.80771483 46.44225214 276.81286721 48.15019989 276.81063271 C50.54620277 276.80826977 52.94085072 276.83051979 55.33666992 276.8581543 C56.03614746 276.85155289 56.735625 276.84495148 57.45629883 276.83815002 C62.84717161 276.93974074 65.87089771 278.46788964 70.24389648 281.38818359 C75.53123318 287.13390671 74.80810176 295.27991234 74.68139648 302.57568359 C74.68848633 303.73777344 74.69557617 304.89986328 74.70288086 306.09716797 C74.65119571 313.01105007 74.32352969 317.30855039 69.24389648 322.38818359 C65.49538282 323.79103506 61.52343513 323.53592806 57.57641602 323.53344727 C56.42421318 323.53848518 56.42421318 323.53848518 55.24873352 323.54362488 C52.70804219 323.55312427 50.16741698 323.55507825 47.62670898 323.55615234 C45.84992445 323.55936835 44.07314018 323.56273268 42.2963562 323.5662384 C38.56564726 323.57222907 34.83496146 323.57407864 31.10424805 323.57348633 C26.35935382 323.57338533 21.61461135 323.58697262 16.86975288 323.60425854 C13.19421734 323.6154707 9.51871723 323.61740264 5.84316635 323.6168766 C4.09634763 323.61804538 2.34952766 323.62240411 0.60272598 323.63020897 C-19.8736176 323.71305061 -39.61425593 321.89644289 -55.26782227 306.99755859 C-57.55034772 304.53771298 -59.6797609 302.02354153 -61.75610352 299.38818359 C-62.24852539 298.77587891 -62.74094727 298.16357422 -63.24829102 297.53271484 C-72.6302854 284.33382213 -72.47862627 268.27855043 -72.38720703 252.84838867 C-72.39235586 250.62083875 -72.39964436 248.39329291 -72.40888977 246.16575623 C-72.42728569 240.16173429 -72.41454125 234.15816072 -72.39479947 228.15415788 C-72.37831984 221.84753356 -72.38723848 215.54093556 -72.39231873 209.23429871 C-72.3968283 198.65051528 -72.38114394 188.06688895 -72.35302734 177.4831543 C-72.32417663 166.62272785 -72.31712018 155.76255389 -72.33251953 144.90209961 C-72.35111943 131.76671538 -72.34931065 118.63145987 -72.3303051 105.49606895 C-72.3234578 100.49678105 -72.32444308 95.49758706 -72.33185005 90.49830055 C-72.33954502 84.60719906 -72.32728194 78.71645854 -72.30000114 72.82541847 C-72.29315084 70.6716621 -72.29298303 68.51787179 -72.30021667 66.36411667 C-72.36217985 45.50206513 -68.7684983 30.6616635 -53.75610352 15.38818359 C-53.19020508 14.80939453 -52.62430664 14.23060547 -52.04125977 13.63427734 C-37.51794681 0.03420677 -18.60250974 -0.05860365 0 0 Z " fill="#000000" transform="translate(119.756103515625,43.61181640625)"/>
<path d="M0 0 C16.83 0 33.66 0 51 0 C51 27.72 51 55.44 51 84 C52.09512665 82.96172926 52.09512665 82.96172926 53.12890625 81.3984375 C61.76745926 69.20560246 73.65185091 61.78738053 88.3125 59.0625 C93.89653176 58.14094044 99.35150445 57.45179246 105 58 C105.98097656 58.0928125 106.96195313 58.185625 107.97265625 58.28125 C124.84265792 60.37240635 139.14860828 67.82191348 150 81 C159.84852656 95.30922687 163.17147245 110.30734753 163.11352539 127.53491211 C163.11367142 128.67710205 163.11381744 129.81929199 163.1139679 130.99609375 C163.11327343 134.75653 163.10550286 138.51691619 163.09765625 142.27734375 C163.09579042 144.89050774 163.09436729 147.50367208 163.09336853 150.11683655 C163.09026759 156.2825319 163.08207095 162.4482094 163.07201904 168.61389691 C163.06081939 175.63689773 163.05533776 182.65989944 163.05032361 189.68290699 C163.03988725 204.12194849 163.02155723 218.56097069 163 233 C147.16 233 131.32 233 115 233 C114.96261719 225.31976563 114.92523437 217.63953125 114.88671875 209.7265625 C114.8564296 204.85023831 114.82527543 199.97395021 114.79101562 195.09765625 C114.73676347 187.36411389 114.68565031 179.63064289 114.65356445 171.89697266 C114.62748456 165.65932812 114.58704845 159.42192429 114.53681374 153.18442917 C114.5201768 150.80913673 114.50864283 148.43380269 114.50238609 146.05846024 C114.49271071 142.72182453 114.4646093 139.38580024 114.43237305 136.04931641 C114.43380814 135.0753894 114.43524323 134.1014624 114.4367218 133.09802246 C114.29413874 122.60768832 111.91386053 113.80218189 104.25 106.3125 C97.90163858 101.79539668 91.88035274 100.43391488 84.25 100.5 C83.07473755 100.50966797 83.07473755 100.50966797 81.87573242 100.51953125 C72.94852157 100.79796278 65.32554191 103.12225335 59 109.6875 C53.10333786 117.61185865 51.40434003 125.41430252 51.45410156 135.14111328 C51.44376389 136.20571274 51.43342621 137.27031219 51.42277527 138.36717224 C51.39350849 141.85170968 51.39185147 145.33566219 51.390625 148.8203125 C51.37563253 151.24983823 51.35890315 153.6793538 51.34051514 156.1088562 C51.29694969 162.47754401 51.27686631 168.84609434 51.26177979 175.21490479 C51.23871703 182.87018705 51.18629974 190.52531854 51.13883972 198.18048096 C51.0701501 209.78702654 51.03859947 221.39313975 51 233 C34.17 233 17.34 233 0 233 C0 156.11 0 79.22 0 0 Z " fill="#000000" transform="translate(561,68)"/>
<path d="M0 0 C1.0725 0.763125 2.145 1.52625 3.25 2.3125 C12.06907648 10.93114292 18.37021467 22.71579715 20 35 C20 36.32 20 37.64 20 39 C5.81 39 -8.38 39 -23 39 C-24.32 35.7 -25.64 32.4 -27 29 C-31.23174997 24.4156042 -36.74972875 22.32768402 -42.8671875 21.7109375 C-50.84042967 21.48776787 -57.67351379 22.23972421 -63.9375 27.4375 C-67.68006319 32.08735124 -68.53435505 34.90835243 -68 41 C-65.79782837 45.9838621 -62.26098785 49.07944642 -57.22607422 51.12939453 C-56.2207666 51.41927246 -55.21545898 51.70915039 -54.1796875 52.0078125 C-53.03467773 52.33813477 -51.88966797 52.66845703 -50.70996094 53.00878906 C-43.53686868 54.92526409 -36.32020823 56.66498628 -29.08935547 58.34912109 C-10.83779083 62.6190832 6.34845828 68.35672639 18 84 C19.58684635 86.58807083 20.85798265 89.19027476 22 92 C22.5878125 93.36125 22.5878125 93.36125 23.1875 94.75 C26.90002539 109.60010157 23.95373793 123.2001963 16.65625 136.4375 C7.26564227 151.46247237 -7.05313163 159.97511876 -24 164 C-25.3921875 164.33644531 -25.3921875 164.33644531 -26.8125 164.6796875 C-48.1486363 169.00618181 -73.28702327 166.05728361 -91.9375 154.5625 C-93.64200645 153.39954245 -95.3314516 152.21398465 -97 151 C-97.65613281 150.52820313 -98.31226563 150.05640625 -98.98828125 149.5703125 C-109.17801473 141.5721625 -115.65706379 128.56665788 -118 116 C-118 114.02 -118 112.04 -118 110 C-103.81 110 -89.62 110 -75 110 C-73.68 113.3 -72.36 116.6 -71 120 C-67.51003884 125.73350763 -62.17130233 127.94289922 -56 130 C-46.41704563 130.8806746 -35.29691645 131.53721248 -27 126 C-23.28785686 122.19731678 -21.82968057 119.43834397 -21.625 114.1875 C-21.68352439 110.48982239 -21.81442542 109.27536873 -23.9375 106.125 C-30.43598836 101.61584481 -37.5643462 99.36040952 -45.20703125 97.59765625 C-46.94596741 97.17775041 -48.68489958 96.75782802 -50.42382812 96.33789062 C-53.11500192 95.69916189 -55.80694683 95.06380743 -58.49926758 94.42993164 C-76.92736456 90.06880094 -96.78797719 84.69704402 -107.53515625 67.55078125 C-114.41892592 54.44552879 -115.35519676 37.94422502 -111.09765625 23.765625 C-105.01407192 8.43759047 -94.59462224 -1.01927504 -80 -8 C-54.59741164 -18.36401002 -22.32521267 -16.31604129 0 0 Z " fill="#000000" transform="translate(533,140)"/>
<path d="M0 0 C0.76183594 -0.01417969 1.52367187 -0.02835938 2.30859375 -0.04296875 C4.96534665 0.22869229 6.43000667 0.55180731 8.5625 2.1875 C9.85598596 6.98390241 9.2913864 10.22415295 7.84375 14.921875 C7.63850708 15.6004808 7.43326416 16.27908661 7.22180176 16.97825623 C6.5149369 19.30216928 5.78902399 21.61966334 5.0625 23.9375 C4.54467576 25.6186204 4.02778582 27.30002881 3.51171875 28.98168945 C2.29137954 32.94865633 1.06161191 36.91259106 -0.171875 40.87548828 C-2.11493347 47.12959813 -4.03039484 53.391889 -5.94054413 59.65611839 C-7.98405675 66.35663164 -10.03673853 73.0542931 -12.09546661 79.75014687 C-13.3976075 83.98556144 -14.69662506 88.22187178 -15.98803711 92.46057129 C-17.22499324 96.51859687 -18.4732038 100.57300017 -19.729599 104.62504768 C-20.19722162 106.139697 -20.66097223 107.65554779 -21.12062073 109.17263603 C-21.75750576 111.27235973 -22.40826101 113.36729935 -23.0625 115.46166992 C-23.42601562 116.64452072 -23.78953125 117.82737152 -24.1640625 119.04606628 C-25.5116641 122.37045488 -26.94482642 124.61548269 -29.4375 127.1875 C-32.6015625 127.74609375 -32.6015625 127.74609375 -36.0625 127.625 C-37.78339844 127.59212891 -37.78339844 127.59212891 -39.5390625 127.55859375 C-42.4375 127.1875 -42.4375 127.1875 -44.4375 125.1875 C-44.93263529 119.56088191 -43.75665081 115.00771926 -42.078125 109.7265625 C-41.82156631 108.89136078 -41.56500763 108.05615906 -41.30067444 107.19564819 C-40.43893453 104.39828952 -39.56330921 101.60548284 -38.6875 98.8125 C-38.07226317 96.82710085 -37.45794886 94.84141564 -36.84448242 92.85546875 C-35.48240799 88.44952567 -34.11505222 84.04525823 -32.74560547 79.64160156 C-30.41900588 72.1452712 -28.12783068 64.63832326 -25.84032822 57.12998581 C-24.48560587 52.68533282 -23.12742557 48.24173534 -21.76927757 43.79812813 C-20.64900903 40.13239784 -19.53012691 36.46625744 -18.41442871 32.7991333 C-17.35273774 29.31056535 -16.28570995 25.82367107 -15.21484184 22.3379097 C-14.62927136 20.4271762 -14.04906426 18.51480161 -13.4690094 16.60238647 C-13.11354538 15.44840363 -12.75808136 14.29442078 -12.3918457 13.10546875 C-11.93223198 11.60149536 -11.93223198 11.60149536 -11.46333313 10.06713867 C-10.34456709 6.926626 -9.11421373 4.07168232 -7.4375 1.1875 C-4.66697819 0.26399273 -2.87061242 0.02420415 0 0 Z " fill="#000000" transform="translate(235.4375,142.8125)"/>
<path d="M0 0 C4.07117699 2.40095053 7.48585993 5.20158743 10.9375 8.4375 C11.73027344 9.17871094 12.52304688 9.91992188 13.33984375 10.68359375 C15 13 15 13 14.83837891 15.38354492 C13.83897641 18.50253052 12.57827756 19.89623107 10.24609375 22.1796875 C9.47330078 22.94410156 8.70050781 23.70851562 7.90429688 24.49609375 C6.68323242 25.67365234 6.68323242 25.67365234 5.4375 26.875 C4.25704102 28.04095703 4.25704102 28.04095703 3.05273438 29.23046875 C-1.27064336 33.47186983 -5.68917038 37.56259625 -10.28881836 41.50268555 C-12.64323035 43.56283803 -14.82273621 45.75469672 -17 48 C-15.67005617 50.95265112 -14.22220684 53.02350216 -11.92724609 55.29980469 C-11.30675385 55.92014587 -10.6862616 56.54048706 -10.04696655 57.17962646 C-9.37920197 57.83706848 -8.71143738 58.4945105 -8.0234375 59.171875 C-6.99556625 60.1955014 -6.99556625 60.1955014 -5.94692993 61.23980713 C-3.76094155 63.41461598 -1.56809571 65.58236072 0.625 67.75 C2.10983255 69.2247999 3.59421306 70.70005506 5.078125 72.17578125 C8.7135291 75.78915448 12.35509824 79.39620853 16 83 C13.94621229 86.52176592 11.91843034 89.32987029 9 92.1875 C8.319375 92.86167969 7.63875 93.53585938 6.9375 94.23046875 C5 96 5 96 2 98 C-3.86700079 97.51151566 -7.97754686 91.84607342 -12 88 C-12.66368591 87.36644592 -13.32737183 86.73289185 -14.01116943 86.08013916 C-18.77643483 81.51572347 -23.49555725 76.90676096 -28.19018555 72.26977539 C-29.86776829 70.61908908 -31.55247341 68.97561282 -33.24389648 67.33911133 C-35.70420851 64.95745347 -38.14116473 62.55398957 -40.57421875 60.14453125 C-41.33546555 59.4162764 -42.09671234 58.68802155 -42.88102722 57.93769836 C-43.56957291 57.2464537 -44.25811859 56.55520905 -44.9675293 55.84301758 C-45.57912399 55.24395096 -46.19071869 54.64488434 -46.82084656 54.02766418 C-48 52 -48 52 -47.9460907 49.05284119 C-46.84271885 45.49248589 -45.53410335 43.92290441 -42.89501953 41.31152344 C-42.02386505 40.43751892 -41.15271057 39.5635144 -40.25515747 38.6630249 C-39.29804374 37.72813226 -38.34058708 36.7935906 -37.3828125 35.859375 C-36.40391862 34.88727599 -35.4260586 33.91413488 -34.44918823 32.94000244 C-31.88036317 30.38456141 -29.29645046 27.84490519 -26.70947266 25.30786133 C-24.60043137 23.23424154 -22.50260451 21.14947731 -20.40524483 19.06405258 C-17.90163845 16.57524545 -15.39286876 14.09167512 -12.8828125 11.609375 C-12.40511539 11.13658867 -11.92741829 10.66380234 -11.43524551 10.17668915 C-10.08085969 8.83861312 -8.72240343 7.50466092 -7.36376953 6.17089844 C-6.5917923 5.41178162 -5.81981506 4.65266479 -5.02444458 3.87054443 C-3 2 -3 2 0 0 Z " fill="#000000" transform="translate(170,157)"/>
<path d="M0 0 C2.85363897 1.09354778 4.29935999 2.72616438 6.390625 4.9453125 C8.99914617 7.69663593 11.65037033 10.2867591 14.53125 12.74609375 C20.48966053 17.91191009 26.09746972 23.44310781 31.70703125 28.98168945 C33.00428659 30.25716008 34.30777877 31.52631594 35.6171875 32.78930664 C37.5250333 34.63040634 39.41258126 36.49030833 41.296875 38.35546875 C41.88424438 38.91500748 42.47161377 39.4745462 43.07678223 40.05104065 C45.5620868 42.54923979 47.05169051 44.17830855 47.5428009 47.72355652 C47.03816749 51.60923574 45.91691903 52.77796492 43.14916992 55.50878906 C42.27793991 56.38279358 41.4067099 57.2567981 40.50907898 58.1572876 C39.54680217 59.09223391 38.58413077 60.02677425 37.62109375 60.9609375 C36.6405543 61.9328168 35.66126734 62.90596125 34.68318176 63.88031006 C32.10825737 66.43802716 29.5153959 68.97680319 26.91876221 71.51245117 C24.80283073 73.58478282 22.69996564 75.67009762 20.597682 77.75625992 C18.08888066 80.24543845 15.57467179 82.72911648 13.05859375 85.2109375 C12.57938162 85.68372383 12.10016949 86.15651016 11.60643578 86.64362335 C10.24723758 87.98179724 8.88384195 89.3157037 7.52026367 90.64941406 C6.74527023 91.40853088 5.97027679 92.16764771 5.17179871 92.94976807 C0.95013642 96.83757287 0.95013642 96.83757287 -1.69140625 96.78125 C-4.92521637 95.34788551 -7.12413504 92.94827563 -9.546875 90.4453125 C-10.04509766 89.9503125 -10.54332031 89.4553125 -11.05664062 88.9453125 C-13.37706161 86.59025837 -14.80029276 84.99755922 -15.859375 81.8203125 C-4.969375 70.9303125 5.920625 60.0403125 17.140625 48.8203125 C13.16573688 44.18294303 9.24495093 39.80440622 4.90234375 35.5546875 C3.74140897 34.40637887 2.58060535 33.25793763 1.41992188 32.109375 C-0.3865627 30.32783983 -2.19463354 28.54796918 -4.00512695 26.77050781 C-5.7694905 25.03624962 -7.5276604 23.29590105 -9.28515625 21.5546875 C-9.8298909 21.02341248 -10.37462555 20.49213745 -10.93586731 19.94476318 C-13.31528782 17.5813864 -14.78289529 16.04975164 -15.859375 12.8203125 C-13.90405635 10.8380858 -11.94531834 8.85946134 -9.984375 6.8828125 C-9.42878906 6.31884766 -8.87320313 5.75488281 -8.30078125 5.17382812 C-2.88116908 -0.27843231 -2.88116908 -0.27843231 0 0 Z " fill="#000000" transform="translate(259.859375,158.1796875)"/>
</svg>
